<?xml version="1.0" encoding="utf-8"?>
<!-- Generator: Adobe Illustrator 16.0.3, SVG Export Plug-In . SVG Version: 6.00 Build 0)  -->
<!DOCTYPE svg PUBLIC "-//W3C//DTD SVG 1.1//EN" "http://www.w3.org/Graphics/SVG/1.1/DTD/svg11.dtd">
<svg version="1.1" id="Capa_1" xmlns:sketch="http://www.bohemiancoding.com/sketch/ns"
	 xmlns="http://www.w3.org/2000/svg" xmlns:xlink="http://www.w3.org/1999/xlink" x="0px" y="0px" width="60px" height="60px"
	 viewBox="0 0 60 60" enable-background="new 0 0 60 60" xml:space="preserve">
<title></title>
<path fill="#FFFFFF" d="M30,60c16.568,0,30-13.432,30-30S46.568,0,30,0S0,13.432,0,30S13.432,60,30,60z"/>
<path fill="#6F6300" stroke="#020202" stroke-width="0.25" stroke-miterlimit="10" d="M30.071,46.221
	c-2.86,0-5.548-0.73-7.886-2.014l-9.032,2.869l2.944-8.684c-1.485-2.439-2.341-5.301-2.341-8.359c0-8.94,7.304-16.188,16.314-16.188
	c9.009,0,16.313,7.247,16.313,16.188C46.385,38.974,39.081,46.221,30.071,46.221z M30.071,16.424
	c-7.563,0-13.715,6.105-13.715,13.609c0,2.978,0.971,5.736,2.612,7.98l-1.713,5.053l5.271-1.674c2.166,1.422,4.76,2.25,7.546,2.25
	c7.562,0,13.716-6.104,13.716-13.608C43.787,22.53,37.633,16.424,30.071,16.424L30.071,16.424z M38.309,33.762
	c-0.1-0.165-0.367-0.265-0.766-0.463c-0.4-0.198-2.367-1.158-2.732-1.291c-0.367-0.132-0.635-0.199-0.9,0.199
	c-0.267,0.396-1.033,1.29-1.267,1.555c-0.233,0.266-0.467,0.299-0.866,0.1c-0.4-0.198-1.688-0.617-3.216-1.969
	c-1.188-1.052-1.991-2.35-2.224-2.748c-0.233-0.397-0.025-0.612,0.175-0.809c0.18-0.178,0.4-0.463,0.6-0.695
	c0.2-0.232,0.267-0.397,0.399-0.662c0.134-0.265,0.067-0.496-0.033-0.695c-0.1-0.198-0.9-2.151-1.233-2.945
	c-0.333-0.794-0.666-0.662-0.899-0.662c-0.233,0-0.5-0.033-0.767-0.033s-0.7,0.099-1.066,0.496c-0.366,0.397-1.399,1.357-1.399,3.31
	c0,1.953,1.432,3.839,1.633,4.104c0.2,0.264,2.765,4.4,6.83,5.99c4.066,1.588,4.066,1.059,4.801,0.992
	c0.731-0.066,2.364-0.96,2.699-1.887C38.408,34.722,38.408,33.928,38.309,33.762L38.309,33.762z"/>
</svg>
